<svg width="34" height="34" viewBox="0 0 34 34" fill="none" xmlns="http://www.w3.org/2000/svg">
<path d="M33.1577 10.9766L31.4077 2.89208C31.0411 1.22708 29.7411 0.0800781 28.2244 0.0800781H5.07439C3.57439 0.0800781 2.25773 1.24558 1.90773 2.89208L0.157726 10.9766C-0.242274 12.8636 0.124393 14.7876 1.19106 16.3046C1.32439 16.5081 1.50773 16.6561 1.65773 16.8411V29.6801C1.65773 31.7151 3.15773 33.3801 4.99106 33.3801H28.3244C30.1577 33.3801 31.6577 31.7151 31.6577 29.6801V16.8411C31.8077 16.6746 31.9911 16.5081 32.1244 16.3231C33.1911 14.8061 33.5744 12.8636 33.1577 10.9766ZM28.1744 3.76158L29.9244 11.8461C30.0911 12.6231 29.9411 13.4001 29.5077 14.0106C29.2744 14.3436 28.7744 14.8801 27.9411 14.8801C26.9244 14.8801 26.0411 13.9736 25.9244 12.7711L24.9577 3.78008L28.1744 3.76158ZM18.3244 3.78008H21.5911L22.4911 12.1421C22.5744 12.8636 22.3744 13.5851 21.9411 14.1216C21.5744 14.6026 21.0411 14.8801 20.3577 14.8801C19.2411 14.8801 18.3244 13.7886 18.3244 12.4566V3.78008ZM10.8077 12.1421L11.7244 3.78008H14.9911V12.4566C14.9911 13.7886 14.0744 14.8801 12.8411 14.8801C12.2744 14.8801 11.7577 14.6026 11.3577 14.1216C10.9411 13.5851 10.7411 12.8636 10.8077 12.1421ZM3.39106 11.8461L5.07439 3.78008H8.35773L7.39106 12.7711C7.25773 13.9736 6.39106 14.8801 5.37439 14.8801C4.55773 14.8801 4.04106 14.3436 3.82439 14.0106C3.37439 13.4186 3.22439 12.6231 3.39106 11.8461ZM4.99106 29.6801V18.5246C5.12439 18.5431 5.24106 18.5801 5.37439 18.5801C6.82439 18.5801 8.14106 17.9141 9.10773 16.8226C10.1077 17.9326 11.4411 18.5801 12.9577 18.5801C14.4077 18.5801 15.7077 17.9141 16.6744 16.8596C17.6577 17.9141 18.9911 18.5801 20.4911 18.5801C21.8911 18.5801 23.2244 17.9326 24.2244 16.8226C25.1911 17.9141 26.5077 18.5801 27.9577 18.5801C28.0911 18.5801 28.2077 18.5431 28.3411 18.5246V29.6801H4.99106Z" fill="#558EFF"/>
</svg>
