<svg width="246" height="30" viewBox="0 0 246 30" fill="none" xmlns="http://www.w3.org/2000/svg">
<rect x="0.5" width="245" height="30" rx="14" fill="#1F2A37"/>
<rect x="4.5" y="4" width="59" height="22" rx="10" fill="#558EFF"/>
<path d="M18.196 19H16.7983L19.9389 10.2727H21.4602L24.6009 19H23.2031L20.7358 11.858H20.6676L18.196 19ZM18.4304 15.5824H22.9645V16.6903H18.4304V15.5824ZM25.8612 19V10.2727H27.1353V13.5156H27.212C27.2859 13.3793 27.3924 13.2216 27.5316 13.0426C27.6708 12.8636 27.864 12.7074 28.1112 12.5739C28.3583 12.4375 28.685 12.3693 29.0913 12.3693C29.6197 12.3693 30.0913 12.5028 30.506 12.7699C30.9208 13.0369 31.2461 13.4219 31.4819 13.9247C31.7205 14.4276 31.8398 15.0327 31.8398 15.7401C31.8398 16.4474 31.7219 17.054 31.4862 17.5597C31.2504 18.0625 30.9265 18.4503 30.5146 18.723C30.1026 18.9929 29.6325 19.1278 29.104 19.1278C28.7063 19.1278 28.381 19.0611 28.1282 18.9276C27.8782 18.794 27.6822 18.6378 27.5401 18.4588C27.3981 18.2798 27.2887 18.1207 27.212 17.9815H27.1055V19H25.8612ZM27.1097 15.7273C27.1097 16.1875 27.1765 16.5909 27.31 16.9375C27.4435 17.2841 27.6367 17.5554 27.8896 17.7514C28.1424 17.9446 28.4521 18.0412 28.8185 18.0412C29.1992 18.0412 29.5174 17.9403 29.7731 17.7386C30.0288 17.5341 30.2219 17.2571 30.3526 16.9077C30.4862 16.5582 30.5529 16.1648 30.5529 15.7273C30.5529 15.2955 30.4876 14.9077 30.3569 14.5639C30.229 14.2202 30.0359 13.9489 29.7773 13.75C29.5217 13.5511 29.2021 13.4517 28.8185 13.4517C28.4492 13.4517 28.1367 13.5469 27.881 13.7372C27.6282 13.9276 27.4364 14.1932 27.3058 14.5341C27.1751 14.875 27.1097 15.2727 27.1097 15.7273ZM36.0277 19.1321C35.4141 19.1321 34.8786 18.9915 34.4212 18.7102C33.9638 18.429 33.6087 18.0355 33.3558 17.5298C33.103 17.0241 32.9766 16.4332 32.9766 15.7571C32.9766 15.0781 33.103 14.4844 33.3558 13.9759C33.6087 13.4673 33.9638 13.0724 34.4212 12.7912C34.8786 12.5099 35.4141 12.3693 36.0277 12.3693C36.6413 12.3693 37.1768 12.5099 37.6342 12.7912C38.0916 13.0724 38.4467 13.4673 38.6996 13.9759C38.9524 14.4844 39.0788 15.0781 39.0788 15.7571C39.0788 16.4332 38.9524 17.0241 38.6996 17.5298C38.4467 18.0355 38.0916 18.429 37.6342 18.7102C37.1768 18.9915 36.6413 19.1321 36.0277 19.1321ZM36.032 18.0625C36.4297 18.0625 36.7592 17.9574 37.0206 17.7472C37.282 17.5369 37.4751 17.2571 37.6001 16.9077C37.728 16.5582 37.7919 16.1733 37.7919 15.7528C37.7919 15.3352 37.728 14.9517 37.6001 14.6023C37.4751 14.25 37.282 13.9673 37.0206 13.7543C36.7592 13.5412 36.4297 13.4347 36.032 13.4347C35.6314 13.4347 35.299 13.5412 35.0348 13.7543C34.7734 13.9673 34.5788 14.25 34.451 14.6023C34.326 14.9517 34.2635 15.3352 34.2635 15.7528C34.2635 16.1733 34.326 16.5582 34.451 16.9077C34.5788 17.2571 34.7734 17.5369 35.0348 17.7472C35.299 17.9574 35.6314 18.0625 36.032 18.0625ZM44.6474 16.2855V12.4545H45.9258V19H44.6729V17.8665H44.6048C44.4542 18.2159 44.2127 18.5071 43.8803 18.7401C43.5508 18.9702 43.1403 19.0852 42.6488 19.0852C42.2283 19.0852 41.8562 18.9929 41.5323 18.8082C41.2113 18.6207 40.9585 18.3438 40.7738 17.9773C40.592 17.6108 40.5011 17.1577 40.5011 16.6179V12.4545H41.7752V16.4645C41.7752 16.9105 41.8988 17.2656 42.146 17.5298C42.3931 17.794 42.7141 17.9261 43.109 17.9261C43.3477 17.9261 43.5849 17.8665 43.8207 17.7472C44.0593 17.6278 44.2567 17.4474 44.413 17.206C44.5721 16.9645 44.6502 16.6577 44.6474 16.2855ZM50.6932 12.4545V13.4773H47.1179V12.4545H50.6932ZM48.0767 10.8864H49.3509V17.0781C49.3509 17.3253 49.3878 17.5114 49.4616 17.6364C49.5355 17.7585 49.6307 17.8423 49.7472 17.8878C49.8665 17.9304 49.9957 17.9517 50.1349 17.9517C50.2372 17.9517 50.3267 17.9446 50.4034 17.9304C50.4801 17.9162 50.5398 17.9048 50.5824 17.8963L50.8125 18.9489C50.7386 18.9773 50.6335 19.0057 50.4972 19.0341C50.3608 19.0653 50.1903 19.0824 49.9858 19.0852C49.6506 19.0909 49.3381 19.0312 49.0483 18.9062C48.7585 18.7812 48.5241 18.5881 48.3452 18.3267C48.1662 18.0653 48.0767 17.7372 48.0767 17.3423V10.8864Z" fill="#1E1E1E"/>
<path d="M80.6186 20.5V10.3182H82.1548V19.1776H86.7685V20.5H80.6186ZM91.6928 20.6541C90.9405 20.6541 90.2925 20.4934 89.7489 20.1719C89.2087 19.8471 88.7911 19.3913 88.4961 18.8047C88.2044 18.2147 88.0586 17.5237 88.0586 16.7315C88.0586 15.9493 88.2044 15.2599 88.4961 14.6634C88.7911 14.0668 89.2021 13.6011 89.729 13.2663C90.2594 12.9316 90.8791 12.7642 91.5884 12.7642C92.0193 12.7642 92.4369 12.8355 92.8413 12.978C93.2456 13.1205 93.6085 13.3442 93.93 13.6491C94.2515 13.9541 94.5051 14.3501 94.6907 14.8374C94.8763 15.3213 94.9691 15.9096 94.9691 16.6023V17.1293H88.8988V16.0156H93.5124C93.5124 15.6245 93.4329 15.2782 93.2738 14.9766C93.1147 14.6716 92.891 14.4313 92.6026 14.2557C92.3176 14.08 91.9828 13.9922 91.5984 13.9922C91.1808 13.9922 90.8162 14.0949 90.5046 14.3004C90.1964 14.5026 89.9577 14.7678 89.7887 15.0959C89.623 15.4207 89.5401 15.7737 89.5401 16.1548V17.0249C89.5401 17.5353 89.6296 17.9695 89.8086 18.3274C89.9909 18.6854 90.2444 18.9588 90.5692 19.1477C90.8941 19.3333 91.2736 19.4261 91.7077 19.4261C91.9895 19.4261 92.2463 19.3864 92.4783 19.3068C92.7103 19.224 92.9109 19.1013 93.0799 18.9389C93.2489 18.7765 93.3782 18.576 93.4677 18.3374L94.8746 18.5909C94.762 19.0052 94.5598 19.3681 94.2681 19.6797C93.9798 19.9879 93.6168 20.2282 93.1793 20.4006C92.7451 20.5696 92.2496 20.6541 91.6928 20.6541ZM98.8407 20.669C98.3568 20.669 97.9193 20.5795 97.5282 20.4006C97.1371 20.2183 96.8272 19.9548 96.5985 19.6101C96.3732 19.2654 96.2605 18.8428 96.2605 18.3423C96.2605 17.9115 96.3433 17.5568 96.5091 17.2784C96.6748 17 96.8985 16.7796 97.1802 16.6172C97.4619 16.4548 97.7768 16.3321 98.1248 16.2493C98.4728 16.1664 98.8275 16.1035 99.1887 16.0604C99.6461 16.0073 100.017 15.9643 100.302 15.9311C100.587 15.8946 100.795 15.8366 100.924 15.7571C101.053 15.6776 101.118 15.5483 101.118 15.3693V15.3345C101.118 14.9003 100.995 14.5639 100.75 14.3253C100.508 14.0866 100.147 13.9673 99.666 13.9673C99.1655 13.9673 98.7711 14.0784 98.4828 14.3004C98.1977 14.5192 98.0005 14.7628 97.8912 15.0312L96.4941 14.7131C96.6599 14.2491 96.9018 13.8745 97.22 13.5895C97.5415 13.3011 97.911 13.0923 98.3287 12.9631C98.7463 12.8305 99.1854 12.7642 99.6461 12.7642C99.9511 12.7642 100.274 12.8007 100.616 12.8736C100.96 12.9432 101.282 13.0724 101.58 13.2614C101.882 13.4503 102.129 13.7204 102.321 14.0717C102.513 14.4197 102.609 14.8722 102.609 15.429V20.5H101.157V19.456H101.098C101.002 19.6482 100.858 19.8371 100.665 20.0227C100.473 20.2083 100.226 20.3625 99.9245 20.4851C99.6229 20.6077 99.2617 20.669 98.8407 20.669ZM99.1639 19.4759C99.5749 19.4759 99.9262 19.3946 100.218 19.2322C100.513 19.0698 100.737 18.8577 100.889 18.5959C101.045 18.3307 101.123 18.0473 101.123 17.7457V16.7614C101.07 16.8144 100.967 16.8641 100.814 16.9105C100.665 16.9536 100.495 16.9917 100.302 17.0249C100.11 17.0547 99.9229 17.0829 99.7406 17.1094C99.5583 17.1326 99.4058 17.1525 99.2832 17.169C98.9949 17.2055 98.7314 17.2668 98.4927 17.353C98.2574 17.4392 98.0685 17.5634 97.926 17.7259C97.7868 17.8849 97.7172 18.0971 97.7172 18.3622C97.7172 18.7301 97.853 19.0085 98.1248 19.1974C98.3966 19.383 98.743 19.4759 99.1639 19.4759ZM104.589 20.5V12.8636H106.026V14.0767H106.105C106.245 13.6657 106.49 13.3426 106.841 13.1072C107.196 12.8686 107.597 12.7493 108.044 12.7493C108.137 12.7493 108.247 12.7526 108.373 12.7592C108.502 12.7659 108.603 12.7741 108.676 12.7841V14.206C108.616 14.1894 108.51 14.1712 108.358 14.1513C108.205 14.1281 108.053 14.1165 107.9 14.1165C107.549 14.1165 107.236 14.1911 106.961 14.3402C106.689 14.486 106.473 14.6899 106.314 14.9517C106.155 15.2102 106.076 15.5052 106.076 15.8366V20.5H104.589ZM111.449 15.9659V20.5H109.962V12.8636H111.389V14.1065H111.483C111.659 13.7022 111.934 13.3774 112.309 13.1321C112.687 12.8868 113.162 12.7642 113.736 12.7642C114.256 12.7642 114.712 12.8736 115.103 13.0923C115.494 13.3078 115.797 13.6293 116.013 14.0568C116.228 14.4844 116.336 15.013 116.336 15.6428V20.5H114.849V15.8217C114.849 15.2682 114.705 14.8357 114.417 14.5241C114.128 14.2093 113.732 14.0518 113.229 14.0518C112.884 14.0518 112.577 14.1264 112.309 14.2756C112.044 14.4247 111.833 14.6435 111.677 14.9318C111.525 15.2169 111.449 15.5616 111.449 15.9659ZM122.154 20.5V10.3182H123.69V14.7429H128.766V10.3182H130.307V20.5H128.766V16.0604H123.69V20.5H122.154ZM135.642 20.6541C134.926 20.6541 134.301 20.4901 133.767 20.1619C133.234 19.8338 132.819 19.3748 132.525 18.7848C132.23 18.1948 132.082 17.5054 132.082 16.7166C132.082 15.9245 132.23 15.2318 132.525 14.6385C132.819 14.0452 133.234 13.5845 133.767 13.2564C134.301 12.9283 134.926 12.7642 135.642 12.7642C136.358 12.7642 136.982 12.9283 137.516 13.2564C138.05 13.5845 138.464 14.0452 138.759 14.6385C139.054 15.2318 139.201 15.9245 139.201 16.7166C139.201 17.5054 139.054 18.1948 138.759 18.7848C138.464 19.3748 138.05 19.8338 137.516 20.1619C136.982 20.4901 136.358 20.6541 135.642 20.6541ZM135.647 19.4062C136.111 19.4062 136.495 19.2836 136.8 19.0384C137.105 18.7931 137.33 18.4666 137.476 18.0589C137.625 17.6513 137.7 17.2022 137.7 16.7116C137.7 16.2244 137.625 15.777 137.476 15.3693C137.33 14.9583 137.105 14.6286 136.8 14.38C136.495 14.1314 136.111 14.0071 135.647 14.0071C135.179 14.0071 134.792 14.1314 134.483 14.38C134.178 14.6286 133.951 14.9583 133.802 15.3693C133.656 15.777 133.583 16.2244 133.583 16.7116C133.583 17.2022 133.656 17.6513 133.802 18.0589C133.951 18.4666 134.178 18.7931 134.483 19.0384C134.792 19.2836 135.179 19.4062 135.647 19.4062ZM142.284 20.5L140.037 12.8636H141.573L143.069 18.4716H143.144L144.645 12.8636H146.181L147.673 18.4467H147.748L149.234 12.8636H150.77L148.528 20.5H147.012L145.461 14.9865H145.346L143.795 20.5H142.284ZM155.886 20.5V12.8636H157.373V20.5H155.886ZM156.637 11.6854C156.378 11.6854 156.156 11.5992 155.971 11.4268C155.788 11.2512 155.697 11.0424 155.697 10.8004C155.697 10.5552 155.788 10.3464 155.971 10.174C156.156 9.99834 156.378 9.91051 156.637 9.91051C156.895 9.91051 157.116 9.99834 157.298 10.174C157.484 10.3464 157.576 10.5552 157.576 10.8004C157.576 11.0424 157.484 11.2512 157.298 11.4268C157.116 11.5992 156.895 11.6854 156.637 11.6854ZM162.937 12.8636V14.0568H158.766V12.8636H162.937ZM159.884 11.0341H161.371V18.2578C161.371 18.5462 161.414 18.7633 161.5 18.9091C161.586 19.0516 161.697 19.1494 161.833 19.2024C161.972 19.2521 162.123 19.277 162.286 19.277C162.405 19.277 162.509 19.2687 162.599 19.2521C162.688 19.2356 162.758 19.2223 162.808 19.2124L163.076 20.4403C162.99 20.4735 162.867 20.5066 162.708 20.5398C162.549 20.5762 162.35 20.5961 162.112 20.5994C161.721 20.6061 161.356 20.5365 161.018 20.3906C160.68 20.2448 160.406 20.0194 160.198 19.7145C159.989 19.4096 159.884 19.0268 159.884 18.5661V11.0341ZM170.399 20.5L167.575 10.3182H169.191L171.175 18.2031H171.269L173.333 10.3182H174.933L176.997 18.2081H177.091L179.07 10.3182H180.691L177.862 20.5H176.316L174.173 12.8736H174.093L171.95 20.5H170.399ZM184.437 20.6541C183.721 20.6541 183.096 20.4901 182.562 20.1619C182.029 19.8338 181.614 19.3748 181.319 18.7848C181.024 18.1948 180.877 17.5054 180.877 16.7166C180.877 15.9245 181.024 15.2318 181.319 14.6385C181.614 14.0452 182.029 13.5845 182.562 13.2564C183.096 12.9283 183.721 12.7642 184.437 12.7642C185.153 12.7642 185.777 12.9283 186.311 13.2564C186.845 13.5845 187.259 14.0452 187.554 14.6385C187.849 15.2318 187.996 15.9245 187.996 16.7166C187.996 17.5054 187.849 18.1948 187.554 18.7848C187.259 19.3748 186.845 19.8338 186.311 20.1619C185.777 20.4901 185.153 20.6541 184.437 20.6541ZM184.442 19.4062C184.906 19.4062 185.29 19.2836 185.595 19.0384C185.9 18.7931 186.125 18.4666 186.271 18.0589C186.42 17.6513 186.495 17.2022 186.495 16.7116C186.495 16.2244 186.42 15.777 186.271 15.3693C186.125 14.9583 185.9 14.6286 185.595 14.38C185.29 14.1314 184.906 14.0071 184.442 14.0071C183.974 14.0071 183.586 14.1314 183.278 14.38C182.973 14.6286 182.746 14.9583 182.597 15.3693C182.451 15.777 182.378 16.2244 182.378 16.7116C182.378 17.2022 182.451 17.6513 182.597 18.0589C182.746 18.4666 182.973 18.7931 183.278 19.0384C183.586 19.2836 183.974 19.4062 184.442 19.4062ZM189.656 20.5V12.8636H191.092V14.0767H191.172C191.311 13.6657 191.556 13.3426 191.908 13.1072C192.262 12.8686 192.663 12.7493 193.111 12.7493C193.204 12.7493 193.313 12.7526 193.439 12.7592C193.568 12.7659 193.669 12.7741 193.742 12.7841V14.206C193.683 14.1894 193.576 14.1712 193.424 14.1513C193.272 14.1281 193.119 14.1165 192.967 14.1165C192.615 14.1165 192.302 14.1911 192.027 14.3402C191.755 14.486 191.54 14.6899 191.381 14.9517C191.222 15.2102 191.142 15.5052 191.142 15.8366V20.5H189.656ZM196.396 17.9098L196.386 16.0952H196.644L199.687 12.8636H201.467L197.997 16.5426H197.763L196.396 17.9098ZM195.029 20.5V10.3182H196.515V20.5H195.029ZM199.851 20.5L197.117 16.8707L198.141 15.8317L201.676 20.5H199.851ZM208.544 14.728L207.197 14.9666C207.14 14.7943 207.051 14.6302 206.928 14.4744C206.809 14.3187 206.646 14.1911 206.441 14.0916C206.235 13.9922 205.979 13.9425 205.67 13.9425C205.249 13.9425 204.898 14.0369 204.616 14.2259C204.335 14.4115 204.194 14.6518 204.194 14.9467C204.194 15.2019 204.288 15.4074 204.477 15.5632C204.666 15.719 204.971 15.8466 205.392 15.946L206.605 16.2244C207.308 16.3868 207.831 16.6371 208.176 16.9751C208.521 17.3132 208.693 17.7524 208.693 18.2926C208.693 18.75 208.56 19.1577 208.295 19.5156C208.033 19.8703 207.667 20.1487 207.197 20.3509C206.729 20.553 206.187 20.6541 205.571 20.6541C204.716 20.6541 204.018 20.4718 203.478 20.1072C202.938 19.7393 202.606 19.2173 202.483 18.5412L203.92 18.3224C204.01 18.697 204.194 18.9804 204.472 19.1726C204.751 19.3615 205.113 19.456 205.561 19.456C206.048 19.456 206.438 19.3549 206.729 19.1527C207.021 18.9472 207.167 18.697 207.167 18.402C207.167 18.1634 207.077 17.9628 206.898 17.8004C206.723 17.638 206.452 17.5154 206.088 17.4325L204.795 17.1491C204.083 16.9867 203.556 16.7282 203.214 16.3736C202.876 16.0189 202.707 15.5698 202.707 15.0263C202.707 14.5755 202.833 14.1811 203.085 13.843C203.337 13.505 203.685 13.2415 204.129 13.0526C204.573 12.8603 205.082 12.7642 205.655 12.7642C206.481 12.7642 207.13 12.9432 207.604 13.3011C208.078 13.6558 208.391 14.1314 208.544 14.728Z" fill="#558EFF"/>
<path fill-rule="evenodd" clip-rule="evenodd" d="M224.793 19.707C224.606 19.5195 224.5 19.2651 224.5 19C224.5 18.7348 224.606 18.4805 224.793 18.293L228.086 15L224.793 11.707C224.611 11.5184 224.51 11.2658 224.512 11.0036C224.515 10.7414 224.62 10.4906 224.805 10.3052C224.991 10.1198 225.241 10.0146 225.504 10.0123C225.766 10.01 226.018 10.1108 226.207 10.293L230.207 14.293C230.395 14.4805 230.5 14.7348 230.5 15C230.5 15.2651 230.395 15.5195 230.207 15.707L226.207 19.707C226.02 19.8945 225.765 19.9998 225.5 19.9998C225.235 19.9998 224.981 19.8945 224.793 19.707Z" fill="#558EFF"/>
</svg>
